<svg xmlns="http://www.w3.org/2000/svg" viewBox="0 0 64 64" aria-hidden="true" role="img">
  <defs>
    <style>
      .line { stroke: #24334a; stroke-width: 3; stroke-linecap: round; stroke-linejoin: round; fill: none; }
      .fill { fill: #f4ede0; }
      @media (prefers-color-scheme: dark) {
        .line { stroke: #f8f5ef; }
        .fill { fill: #24334a; }
      }
    </style>
  </defs>
  <circle class="fill" cx="32" cy="9" r="4" />
  <path class="line" d="M18 12c6 0 10-2 14-6 4 4 8 6 14 6" />
  <path class="line" d="M18 16c5 0 9.5-1.4 14-4.2 4.5 2.8 9 4.2 14 4.2" />
  <path class="line" d="M32 13v44" />
  <path class="line" d="M28 18c-4 1.8-6.5 5.4-6.5 9.4 0 4 2.8 7 6.5 7 3.8 0 6.5 2.8 6.5 6.4 0 3.8-2.7 6.4-6.5 6.4-3.4 0-6.3 2.5-6.3 6 0 2 .7 3.6 2.1 5" />
  <path class="line" d="M36 18c4 1.8 6.5 5.4 6.5 9.4 0 4-2.8 7-6.5 7-3.8 0-6.5 2.8-6.5 6.4 0 3.8 2.7 6.4 6.5 6.4 3.4 0 6.3 2.5 6.3 6 0 2-.7 3.6-2.1 5" />
  <path class="line" d="M25.5 43.5h13" />
</svg>
