<svg xmlns="http://www.w3.org/2000/svg" viewBox="0 0 128 128" fill="none">
  <g stroke="currentColor" stroke-width="6" stroke-linecap="round" stroke-linejoin="round">
    <path d="M64 20c6.6 0 12 5.4 12 12S70.6 44 64 44s-12-5.4-12-12 5.4-12 12-12Z" fill="currentColor" />
    <path d="M64 44v64" />
    <path d="M64 48c-14.5-10.8-24-15.8-36-16 9 6.9 15 16.5 17.5 26.3" />
    <path d="M64 48c14.5-10.8 24-15.8 36-16-9 6.9-15 16.5-17.5 26.3" />
    <path d="M64 62c-6.6 0-12 4.7-12 10.5S57.4 83 64 83s12 4.5 12 10.5S70.6 104 64 104c-6.7 0-12-4.5-12-10.5" />
    <path d="M52 72c0-6 5-10 12-10s12-4 12-10" />
    <path d="M76 88c0-6-5-10-12-10s-12-4-12-10" />
    <path d="M58 110h12" />
  </g>
  <style>
    :root { color: #2f3f63; }
    @media (prefers-color-scheme: dark) {
      :root { color: #f5efe6; }
    }
  </style>
</svg>
