<svg xmlns="http://www.w3.org/2000/svg" viewBox="0 0 64 64" role="img" aria-labelledby="title desc">
  <title id="title">The Medicality Caduceus</title>
  <desc id="desc">Stylized caduceus representing hospitality-inspired healthcare.</desc>
  <defs>
    <linearGradient id="wing" x1="0" x2="1" y1="0" y2="0">
      <stop offset="0%" stop-color="#f2d7b0" />
      <stop offset="100%" stop-color="#d7b88a" />
    </linearGradient>
    <linearGradient id="staff" x1="0" x2="0" y1="0" y2="1">
      <stop offset="0%" stop-color="#2d3c52" />
      <stop offset="100%" stop-color="#1c2735" />
    </linearGradient>
  </defs>
  <rect width="64" height="64" rx="12" fill="#f9f5ed" />
  <path d="M22 20c3-4 8-6 10-6s7 2 10 6" fill="url(#wing)" stroke="#7b5f3a" stroke-width="1.5" stroke-linecap="round" />
  <path d="M42 20c-3 4-8 6-10 6s-7-2-10-6" fill="url(#wing)" stroke="#7b5f3a" stroke-width="1.5" stroke-linecap="round" />
  <path d="M32 14v36" stroke="url(#staff)" stroke-width="3" stroke-linecap="round" />
  <circle cx="32" cy="14" r="4" fill="#f5e9d7" stroke="#7b5f3a" stroke-width="1.5" />
  <path d="M26 28c2.5 2 5 2 6 0s3.5-2 6 0" fill="none" stroke="#7b5f3a" stroke-width="1.5" stroke-linecap="round" />
  <path d="M26 36c2.5 2 5 2 6 0s3.5-2 6 0" fill="none" stroke="#7b5f3a" stroke-width="1.5" stroke-linecap="round" />
  <path d="M26 44c2.5 2 5 2 6 0s3.5-2 6 0" fill="none" stroke="#7b5f3a" stroke-width="1.5" stroke-linecap="round" />
  <path d="M29 22c0 2-1 3-3 3" fill="none" stroke="#7b5f3a" stroke-width="1.5" stroke-linecap="round" />
  <path d="M35 22c0 2 1 3 3 3" fill="none" stroke="#7b5f3a" stroke-width="1.5" stroke-linecap="round" />
  <path d="M30 50h4" stroke="#1c2735" stroke-width="2.5" stroke-linecap="round" />
</svg>
