<svg width="1600" height="1000" viewBox="0 0 1600 1000" xmlns="http://www.w3.org/2000/svg" fill="none">
  <rect width="1600" height="1000" fill="#F8F3EB"/>
  <g opacity="0.9" stroke="#25334A" stroke-width="2" stroke-linecap="round" stroke-linejoin="round">
    <path d="M180 680C260 580 360 520 470 520C650 520 780 680 960 680C1100 680 1250 600 1380 470" opacity="0.25"/>
    <path d="M220 610C320 510 440 470 560 480C720 495 850 620 1010 630C1140 640 1260 590 1360 500" opacity="0.35"/>
    <path d="M300 540C400 450 540 430 680 450C820 470 940 550 1070 560C1200 570 1320 520 1400 460" opacity="0.45"/>
    <path d="M180 420C340 320 560 300 740 330C980 370 1200 290 1390 210" opacity="0.25"/>
    <path d="M210 350C370 260 570 250 760 280C1000 320 1200 250 1360 190" opacity="0.35"/>
    <path d="M240 290C400 230 620 230 820 260C1000 290 1220 230 1340 180" opacity="0.45"/>
    <path d="M520 760C600 720 720 700 840 720C940 740 1040 770 1140 770C1260 770 1340 730 1420 690" opacity="0.35"/>
    <path d="M360 820C480 780 640 760 800 780C960 800 1110 840 1240 830C1330 820 1410 780 1470 740" opacity="0.2"/>
    <path d="M340 210C420 160 540 140 660 150C820 160 1000 190 1140 180C1280 170 1400 130 1470 100" opacity="0.2"/>
  </g>
  <g opacity="0.6" stroke="#7B603D" stroke-width="3" stroke-linecap="round" stroke-dasharray="6 10">
    <path d="M180 780C360 660 620 640 820 670C1060 710 1320 650 1430 560"/>
    <path d="M220 470C420 360 700 330 930 360C1190 390 1390 330 1480 270"/>
  </g>
  <rect x="180" y="240" width="560" height="380" rx="42" fill="#FDF9F2" stroke="#25334A" stroke-width="2" stroke-dasharray="10 12" opacity="0.8"/>
  <rect x="860" y="200" width="560" height="430" rx="50" fill="#FDF9F2" stroke="#7B603D" stroke-width="2" stroke-dasharray="12 12" opacity="0.7"/>
  <path d="M240 560C280 520 380 520 420 560C470 610 560 610 610 560" stroke="#25334A" stroke-width="2" opacity="0.45"/>
  <path d="M940 540C1000 500 1120 500 1180 540C1240 580 1330 580 1380 540" stroke="#7B603D" stroke-width="2" opacity="0.45"/>
  <text x="260" y="340" fill="#25334A" font-family="'Cormorant Garamond', 'Times New Roman', serif" font-size="46" opacity="0.8">Quiet arrival.</text>
  <text x="260" y="400" fill="#7B603D" font-family="'Cormorant Garamond', 'Times New Roman', serif" font-size="36" opacity="0.65">Concierge warmth.</text>
  <text x="260" y="460" fill="#25334A" font-family="'Manrope', 'Inter', sans-serif" font-size="22" opacity="0.7">A sketch of hospitality meeting care.</text>
  <text x="920" y="330" fill="#25334A" font-family="'Cormorant Garamond', 'Times New Roman', serif" font-size="46" opacity="0.78">Serene suites.</text>
  <text x="920" y="390" fill="#7B603D" font-family="'Cormorant Garamond', 'Times New Roman', serif" font-size="36" opacity="0.65">Thoughtful detail.</text>
  <text x="920" y="450" fill="#25334A" font-family="'Manrope', 'Inter', sans-serif" font-size="22" opacity="0.7">Pencil lines, luxury pace.</text>
</svg>
