<svg width="1600" height="900" viewBox="0 0 1600 900" xmlns="http://www.w3.org/2000/svg" role="img" aria-labelledby="title desc">
  <title>Placeholder sketch of a serene lobby</title>
  <desc>Hand-drawn styled illustration of a luxury-inspired healthcare lounge.</desc>
  <defs>
    <linearGradient id="paper" x1="0" y1="0" x2="1" y2="1">
      <stop offset="0%" stop-color="#f8f4ec" />
      <stop offset="100%" stop-color="#f2ebdf" />
    </linearGradient>
  </defs>
  <rect width="1600" height="900" fill="url(#paper)" stroke="#1c1a18" stroke-width="3" />
  <rect x="70" y="120" width="1460" height="660" rx="24" fill="none" stroke="#1c1a18" stroke-width="3" stroke-dasharray="12 12" />
  <path d="M140 620 Q320 540 520 640 T980 600 T1460 520" fill="none" stroke="#a08d7a" stroke-width="4" stroke-linecap="round" />
  <path d="M210 280 Q380 180 560 320" fill="none" stroke="#1c1a18" stroke-width="4" />
  <path d="M920 300 Q1060 220 1340 340" fill="none" stroke="#1c1a18" stroke-width="4" />
  <path d="M480 470 q60 -110 140 -10 t200 0" fill="none" stroke="#6c7a89" stroke-width="5" />
  <path d="M960 460 q60 -120 130 -10 t150 10" fill="none" stroke="#6c7a89" stroke-width="5" />
  <circle cx="330" cy="480" r="90" fill="none" stroke="#1c1a18" stroke-width="4" />
  <circle cx="730" cy="430" r="110" fill="none" stroke="#1c1a18" stroke-width="4" />
  <circle cx="1180" cy="470" r="95" fill="none" stroke="#1c1a18" stroke-width="4" />
  <path d="M740 430 q-25 -40 -70 -40 q-60 0 -70 70" fill="none" stroke="#1c1a18" stroke-width="3" />
  <path d="M290 500 q-20 -50 -60 -60" fill="none" stroke="#1c1a18" stroke-width="3" />
  <path d="M1215 470 q-20 -46 -58 -58" fill="none" stroke="#1c1a18" stroke-width="3" />
  <path d="M320 640 h120" stroke="#1c1a18" stroke-width="3" />
  <path d="M720 620 h160" stroke="#1c1a18" stroke-width="3" />
  <path d="M1180 610 h130" stroke="#1c1a18" stroke-width="3" />
  <text x="140" y="220" fill="#6c7a89" font-family="'Cormorant Garamond', serif" font-size="36">Concierge welcome</text>
  <text x="990" y="250" fill="#6c7a89" font-family="'Cormorant Garamond', serif" font-size="36">Quiet suite</text>
</svg>
